<svg width="200px" height="200px" viewBox="0 0 200 200" version="1.1" xmlns="http://www.w3.org/2000/svg"><g stroke="none" stroke-width="1" fill="none" fill-rule="evenodd"><path class="social-icon-fill SocialIconFill" d="m100 0c-39.323-0.5461-77.245 24.729-92.141 61.076-15.551 35.707-7.5052 80.064 19.754 107.91 26.228 28.23 69.437 38.53 105.62 25.36 37.5-12.74 65.15-49.58 66.64-89.2 2.49-38.519-19.83-77.018-54.34-94.211-14.02-7.2041-29.77-10.963-45.53-10.939zm1.15 67c3.52 0.084 7.02 0.624 10.21 1.453 9.38 2.495 13.32 12.117 12.94 20.344h-14.81c-0.12-3.513-1.01-7.405-4.02-9.83-6.291-5.094-13.998 1.787-14.14 8.064-1.735 10.935-1.668 22.239 0.508 33.119 0.596 5.83 7.962 10.75 13.592 6.62 6.03-3.71 4.81-10.76 4.91-16.5h-10.19v-10.21h25.01v37.08h-7.28c-2.47 0.15-5.13 0.48-4.1-2.59 0.98-6.84-2.43-0.08-6 1.55-7.43 3.24-17.135 2.92-23.997-1.37-8.273-6.41-8.374-17.2-8.957-26.32-0.035-11.275-1.018-23.767 6.135-33.592 4.65-5.982 12.453-8.002 20.189-7.818zm-55.777 0.088c6.94 0.053 14.177 1.817 18.174 7.432 5.617 8.448 5.716 20.577-1.225 28.43-6.895 7.16-17.885 6.55-27.386 6.5v28.09h-15.459v-70.376h22.951c0.969-0.056 1.954-0.084 2.945-0.076zm115.74 0c6.94 0.053 14.17 1.817 18.17 7.432 5.62 8.448 5.72 20.577-1.23 28.43-6.89 7.16-17.88 6.55-27.38 6.5v28.09h-15.46v-70.376h22.95c0.97-0.056 1.95-0.084 2.95-0.076zm-121.81 10.502c-1.507 0.016-2.994 0.067-4.365 0.021v21.387c3.349-0.101 6.777 0.271 10.074-0.361 7.734-1.813 8.464-11.072 5.711-16.727-2.212-4.102-6.9-4.367-11.42-4.32zm115.73 0c-1.5 0.016-2.99 0.067-4.36 0.021v21.387c3.35-0.101 6.78 0.271 10.07-0.361 7.74-1.813 8.47-11.072 5.72-16.727-2.22-4.102-6.91-4.367-11.43-4.32z" fill="#444444"></path></g></svg>